<svg xmlns="http://www.w3.org/2000/svg" viewBox="0 0 500 500" enable-background="new 0 0 500 500" height="50" width="50" class="artwork_icon"><path d="M453.7 132.4c3.4-16.4-9.8-24.2-9.8-24.2-8.5-10-19.9-6.2-19.9-6.2h-339.8l-1.1.6c-12.9-4-19.5 8.8-19.5 8.8-17-1.2-18.6 15.6-18.6 15.6v243.7c0 13.2 6 14.9 14.7 22.2 8.7 7.3 16.3 4.1 16.3 4.1h328.8c20.7 8 31.8-8.2 31.8-8.2 19.3-3 17-18.2 17-18.2s-3.3-221.7.1-238.2zm-52.7 223.6h-34.8l-53.8-65.1 38.6-29.5-84-64.1v-39.3h134v198zm-38.1-1l-134.9.3 22.1-16.9 60.5-44 52.3 60.6zm-19.9-93.6l-118.1 91.2-.4-66.6h42.5v-83.7l76 59.1zm-81-67.9v87.5h-155v-120h155v32.5zm-41 92.5v70h-117v-70h117zm199.5 71h-14.5v-202h-306v202h-22v-221.2s6.9 1.3 14.4-1.8h325.2l3 .7-.1 222.3z"/></svg>