<svg xmlns="http://www.w3.org/2000/svg" viewBox="0 0 500 500" enable-background="new 0 0 500 500" height="50" width="50" class="code_icon"><g><path d="M58.7 113.6l-41.1 97.6h-10l41.1-97.6h10zM119.1 240.8h-5.9c-10.2 0-17.8-2.4-22.7-7.2-5-4.8-7.5-12-7.5-21.8v-27.3c0-2.6-.3-4.9-.9-6.9-.6-2-1.6-3.8-3.1-5.2s-3.4-2.5-5.8-3.2c-2.4-.7-5.4-1.1-9.1-1.1h-3.4v-11h3.4c3.9 0 7-.3 9.4-.9 2.4-.6 4.3-1.6 5.7-2.9 1.4-1.3 2.3-2.9 2.9-5 .5-2 .8-4.4.8-7.1v-18.8c0-4.4.5-8.4 1.6-12 1.1-3.6 2.8-6.6 5.2-9.1 2.4-2.5 5.5-4.4 9.4-5.8 3.8-1.3 8.5-2 14.1-2h5.9v11.1h-4.7c-12.3 0-18.4 5.9-18.4 17.8v18.6c0 12.9-5.6 20.2-16.7 21.8 11.3 1.1 16.9 8.4 16.9 21.7v27.1c0 12.1 6.1 18.1 18.2 18.1h4.7v11.1zM166 222.9h-29.6v-111.4h29.6v8.4h-19.6v94.6h19.6v8.4zM201.2 212c-14.7-13.6-22.1-28.7-22.1-45.2 0-3.9.4-7.7 1.2-11.6.8-3.8 2-7.7 3.8-11.6 1.7-3.9 4-7.7 6.9-11.6 2.9-3.9 6.3-7.7 10.4-11.5l4.8 4.9c-12.4 12.2-18.6 25.8-18.6 40.7 0 7.4 1.6 14.5 4.7 21.4 3.1 6.8 7.8 13.3 13.9 19.4l-5 5.1zM251 174.3h-10.7l-1.8 17.6h-7.1l1.8-17.6h-12.2l-1.8 17.6h-7.1l1.8-17.6h-10.2v-6.3h10.8l1.7-16.8h-10.1v-6.2h10.7l1.6-15.8h7l-1.4 15.8h12.3l1.6-15.8h7.1l-1.7 15.8h10.3v6.2h-10.9l-1.7 16.8h10v6.3zm-17.1-6.3l1.7-16.8h-12.3l-1.7 16.8h12.3zM304.2 159.8h-8.3l-13.8-24-13 24h-7.6l17.5-30.6h6.8l18.4 30.6zM337.9 120.2h6.9l-1.2 9.3 5 .6c1.7.3 3.2.6 4.7.9v7.4l-5.3-1.2s-3.5-.6-5.3-.7l-2.7 20.5c2.1.8 4.3 1.7 6.4 2.7 2.1 1 4 2.1 5.7 3.4 1.7 1.3 3 2.9 4.1 4.7 1 1.8 1.6 4 1.6 6.5 0 2.7-.5 5.1-1.6 7.1-1.1 2.1-2.6 3.8-4.6 5.3-1.9 1.4-4.3 2.6-7 3.4-2.7.8-5.8 1.3-9.1 1.5l-1.6 11.4h-7l1.6-11.4c-2.6-.2-5.1-.5-7.4-.8-2.3-.4-4.4-.8-6.1-1.2v-8c2 .7 4.2 1.3 6.6 1.7 2.4.4 5 .8 7.9.9l2.8-21.6c-2.1-.8-4.1-1.7-6.1-2.6-2-.9-3.8-2-5.4-3.3-1.6-1.3-2.9-2.8-3.9-4.6-1-1.8-1.5-3.8-1.5-6.3 0-2 .4-3.9 1.2-5.9.8-1.9 2.1-3.7 3.9-5.2 1.8-1.5 4-2.8 6.7-3.8s5.9-1.6 9.6-1.8l1.1-8.9zm-2.1 16.3c-4 .4-6.9 1.3-8.7 2.8-1.8 1.5-2.8 3.5-2.8 5.8 0 2.2.8 4 2.3 5.4 1.5 1.4 3.8 2.7 6.8 3.9l2.4-17.9zm.5 47.9c4.3-.3 7.4-1.3 9.4-2.9 2-1.6 2.9-3.8 2.9-6.5 0-1.1-.2-2.2-.6-3.1-.4-.9-1-1.7-1.9-2.5-.8-.7-1.9-1.4-3.1-2.1-1.2-.6-2.7-1.3-4.3-1.9l-2.4 19zM373 120.5c14.7 13.6 22.1 28.8 22.1 45.5 0 3.5-.4 7-1.1 10.7-.7 3.7-1.9 7.5-3.6 11.4s-4 7.8-6.8 11.8c-2.9 4-6.5 8-10.8 12l-4.8-4.9c6.2-6.2 10.9-12.6 13.9-19.3 3.1-6.7 4.6-13.7 4.6-21.1 0-15.2-6.2-28.9-18.5-41l5-5.1zM53.2 343.1l-.2-7.6c-3.1 3-6.2 5.2-9.3 6.5s-6.5 2-9.9 2c-3.2 0-6-.4-8.2-1.2-2.3-.8-4.2-2-5.6-3.4-1.5-1.4-2.6-3.1-3.2-5.1-.7-1.9-1-4-1-6.3 0-5.6 2.1-10 6.3-13.2 4.2-3.2 10.4-4.8 18.6-4.8h11.6v-4.9c0-3.3-1.1-6-3.2-8s-5.4-3-9.7-3c-3.2 0-6.3.4-9.4 1.1-3.1.7-6.3 1.7-9.5 3v-8.8c1.2-.5 2.6-.9 4.1-1.3 1.5-.4 3.1-.8 4.8-1.1 1.7-.3 3.4-.6 5.3-.8 1.8-.2 3.7-.3 5.5-.3 3.4 0 6.5.4 9.2 1.1 2.7.7 5 1.9 6.9 3.4 1.9 1.5 3.3 3.4 4.3 5.8 1 2.3 1.5 5 1.5 8.2v38.7h-8.9zm-1-25.6h-12.4c-2.4 0-4.5.2-6.3.7-1.8.5-3.2 1.2-4.3 2.1-1.1.9-2 2-2.5 3.2-.5 1.2-.8 2.7-.8 4.2 0 1.1.2 2.1.5 3.1s.9 1.9 1.6 2.6c.7.8 1.7 1.4 2.9 1.8 1.2.4 2.7.7 4.4.7 2.2 0 4.8-.7 7.7-2 2.9-1.4 5.9-3.5 9.2-6.5v-9.9zM106.4 317.2h-33.5v-9.2h33.5v9.2zM151.9 343.1h-45.3v-7l31.7-41h-31v-8.2h42.6v7.6l-31.2 40.3h33v8.3zM209.3 306.6c0 5.6-.6 10.7-1.7 15.3-1.1 4.6-2.8 8.6-5.1 11.9-2.3 3.3-5.1 5.9-8.5 7.7-3.4 1.8-7.3 2.7-11.9 2.7-3.9 0-7.5-.7-10.7-2.2-3.2-1.5-6-3.7-8.2-6.8-2.3-3.1-4-7-5.3-11.7-1.2-4.7-1.8-10.4-1.8-16.8 0-5.6.6-10.7 1.7-15.3 1.1-4.6 2.8-8.6 5.1-11.9 2.3-3.3 5.1-5.9 8.5-7.7 3.4-1.8 7.3-2.7 11.9-2.7 3.9 0 7.5.7 10.7 2.2 3.2 1.5 6 3.7 8.2 6.8 2.3 3.1 4 7 5.3 11.7 1.1 4.7 1.8 10.3 1.8 16.8zm-43.4-.4v3.5c0 1.2.1 2.3.2 3.4l30.9-22.9c-.6-1.9-1.3-3.6-2.1-5.2-.9-1.6-1.9-2.9-3.1-4.1-1.2-1.1-2.6-2-4.1-2.7-1.5-.6-3.2-1-5.1-1-2.5 0-4.8.6-6.9 1.8-2.1 1.2-3.8 3.1-5.3 5.5s-2.6 5.5-3.4 9.1c-.7 3.7-1.1 7.9-1.1 12.6zm33.5.7c0-1.3 0-2.5-.1-3.8-.1-1.3-.2-2.5-.3-3.7l-31 23c.6 1.9 1.3 3.7 2.1 5.4.9 1.6 1.9 3 3.1 4.2 1.2 1.2 2.6 2.1 4.1 2.7 1.5.7 3.3 1 5.3 1 2.5 0 4.8-.6 6.9-1.8 2.1-1.2 3.8-3.1 5.3-5.5s2.6-5.4 3.4-9c.8-3.6 1.2-7.8 1.2-12.5zM253.2 318h-35.9v-9.8h35.9v9.8zM322.2 300.5c0 8.6-1 16-3.1 22.2-2.1 6.2-5.1 11.3-9.2 15.3s-9.1 6.9-15.1 8.8-12.9 2.8-20.8 2.8h-7.4v-10.3h8.2c5.8 0 10.9-.6 15.1-1.8 4.2-1.2 7.8-2.9 10.6-5.2 2.8-2.3 5-5.1 6.5-8.3 1.5-3.3 2.4-7 2.8-11.2l.3-2.8c-2.8 1.7-6.1 3-9.8 4-3.7 1-7.7 1.5-12 1.5-4.5 0-8.4-.7-11.8-2-3.4-1.3-6.2-3.1-8.4-5.5-2.2-2.3-3.9-5.1-5-8.4-1.1-3.2-1.7-6.7-1.7-10.5 0-4.1.7-7.9 2.2-11.5 1.5-3.6 3.6-6.7 6.3-9.3s5.9-4.7 9.6-6.3c3.7-1.5 7.9-2.3 12.4-2.3 4.4 0 8.4.7 12.1 2.2 3.7 1.4 6.9 3.8 9.6 7 2.7 3.2 4.8 7.4 6.4 12.6 1.4 5.4 2.2 11.7 2.2 19zm-31-30.8c-2.5 0-4.9.4-7 1.3-2.1.8-4 2-5.5 3.7-1.6 1.6-2.8 3.6-3.7 5.9-.9 2.3-1.4 5-1.4 8 0 2.8.3 5.2 1 7.4s1.7 4 3 5.5c1.4 1.5 3.1 2.7 5.3 3.5 2.2.8 4.7 1.2 7.7 1.2 1.7 0 3.4-.2 5.2-.5 1.8-.3 3.5-.7 5.2-1.3 1.7-.5 3.3-1.2 4.8-1.9s2.9-1.5 4.1-2.3c0-5.8-.4-10.7-1.3-14.6-.9-3.9-2.1-7-3.7-9.4-1.6-2.4-3.6-4-5.9-5-2.2-1-4.8-1.5-7.8-1.5zM361 366.2h-33.4v-9.5h22v-106.8h-22v-9.5h33.4v125.8zM366.8 222.1h7.4c12.8 0 22.3 3 28.6 9 6.2 6 9.4 15.1 9.4 27.3v23c0 3.3.4 6.2 1.1 8.7.7 2.6 2 4.7 3.8 6.5 1.8 1.8 4.3 3.1 7.3 4 3.1.9 6.9 1.4 11.5 1.4h4.3v13.8h-4.3c-4.8 0-8.8.4-11.9 1.2-3.1.8-5.5 2-7.2 3.6-1.7 1.6-2.9 3.7-3.6 6.2-.7 2.5-1 5.5-1 9v34.9c0 5.6-.7 10.6-2 15.1s-3.5 8.3-6.5 11.4c-3 3.2-6.9 5.6-11.8 7.3-4.8 1.7-10.8 2.5-17.7 2.5h-7.4v-13.9h6c15.3 0 23-7.5 23-22.4v-34.5c0-16.2 7-25.3 21-27.3-14.1-1.5-21.2-10.7-21.2-27.4v-22.8c0-15.2-7.6-22.8-22.8-22.8h-6v-13.8zM493.4 254.1l-46.4 110.2h-11.2l46.4-110.2h11.2z"/></g></svg>