<svg xmlns="http://www.w3.org/2000/svg" viewBox="0 0 500 500" enable-background="new 0 0 500 500" height="50" width="50" class="music_icon"><ellipse cx="248.9" cy="153.6" rx="89.9" ry="20.5"/><path d="M159.5 155l-.5 191.1s84 43.5 178.8 0l.9-192.6c.1.1-46.2 37.7-179.2 1.5zm174.7 183.8c-80.5 42.7-170.9 2.9-170.9 2.9l.7-178.9c99.7 33.6 170.6-.7 170.6-.7l-.4 176.7zM329 249c-9 2.9-18.3 5.1-27 7l-.2-7.9c-4 .5-12.6.9-12.6.9l.5 9.5c-11.4 2-22.1 3.3-32.1 4l-1-12.3s-12.9 1.6-15.9-.7l.5 13.7c-12.7.1-24-.6-33.6-1.8l-.6-8.2-8.7-.5.2 7.3c-19.9-3.4-30.8-8.2-30.8-8.2l.8 10.8c9.8 3.5 19.9 5.8 30.1 7.4l.1 5.2s6.6 3.3 9.8.9l-.3-4.8c11.2 1.3 22.4 1.6 33.2 1.3l.2 4.9s15.4.5 17.1-.7l-.4-5.1c11.6-.9 22.3-2.4 31.8-4.1l.2 3.4c4.4.9 12.2-1.6 12.2-1.6l-.2-4.1c16.3-3.5 26.6-6.9 26.6-6.9v-9.4zM381.8 166.9s35.6 68.3 62.7 81.4c0 0-49.6 48.7-61.8 70.2 0 0-9.4 4.2-1.4-7.5s46.3-55.7 56.2-61.8c0 0-53.4-49.1-61.3-80 0 0-.4-9.3 5.6-2.3zM448.3 179.5s8.9 49.6 44.9 66.5c0 0-39.3 40.7-44.9 59.4 0 0-12.6 8.9-5.1-1.9 0 0 32.8-57.1 42.6-56.2 0 0-44.9-33.2-44-64.6-.1.1-2.9-21.4 6.5-3.2zM103.6 169s-10.5 56.9-49.8 75.1c0 0 43.5 24.6 56.2 73 0 0 11 11.5 5.6-3.7 0 0-28.5-61.1-47.7-67.9 0 0 36.9-30.9 40.4-73 3.4-42.1-4.7-13.3-4.7-3.5zM47.2 167.8s-7.5 53.4-40.2 74.9c0 0 42.1 30.9 48.2 57.1 0 0 8.9 8.9 5.1-2.8 0 0-25.7-52.4-43.1-54.3 0 0 37-44 36.5-70.7.1 0 4.3-25.7-6.5-4.2z"/></svg>