<svg xmlns="http://www.w3.org/2000/svg" viewBox="0 0 576 576" width="576" height="576"><path fill="#fff" d="M0 0h576v576h-576z"/><path fill="#231F20" d="M77.2 379.8h13.8v-124.5h-13.8v-2.5h29.3v70.6h.4c.6-1.6 1.6-3.5 3.1-5.8 1.4-2.3 3.4-4.5 5.8-6.6 2.5-2.1 5.4-3.9 9-5.4 3.5-1.5 7.8-2.2 12.7-2.2 7.9 0 14.3 1.9 19.3 5.7 5 3.8 7.5 9.9 7.5 18.3v52.4h13.7v2.5h-43.1v-2.5h13.8v-58c0-4.7-1.1-8.5-3.3-11.5s-5.7-4.5-10.3-4.5c-3.8 0-7.5.8-11 2.5s-6.5 4-9.2 7c-2.6 3-4.7 6.5-6.2 10.6s-2.2 8.5-2.2 13.3v40.6h13.8v2.5h-43.1v-2.5z"/><path fill="#1D1D41" d="M202.2 367.1v-91.5l.2-15.3h22.6l.1 15.3.2 91.5h13.7v15.3h-50.8v-15.3h14z"/><path fill="#201D50" d="M265.2 367.1l-.4-91.5h-18.3v-15.3h47.3l59 94.6v-79.3h-17.9v-15.3h56.8v15.3h-17.4l-.4 106.7h-33.5l-54.4-93.1.8 77.9h16.4v15.3h-56.7v-15.3h18.7z"/><path fill="#262261" d="M418.3 362v-122.2h-22.5v-20.4h74.8v20.4h-23.1l.7 122.1h19.8v20.4h-72.3v-20.3h22.6zm29.4-65.7l57.4-56.5h-19.2v-20.4h72.4v20.4h-17.5l-56.6 56.4 58 65.7h17.8v20.4h-75v-20.3h19.9l-57.2-65.7z"/><path fill="#1D1D41" d="M218.5 193.7v19.5l19.1-6.6 3.5 9.7-19.1 6.2 11.8 16.5-8.7 6.2-11.3-17.2-11.6 17.2-8.9-6.2 12-16.5-19.3-6.2 3.5-9.7 18.9 6.8v-19.7h10.1z"/><path fill="#231F20" d="M41.6 307.7l29.2.1v-2.5h-29.2l-.6-49.5c-1.3 1 .2-.1 0 0-1.1.8-2.9.6-4.7.6-2 0-3.5-.1-4.3-.4-.8-.2-1.7-.5-2.7-.9l.4 50h-13.7v2.5h13.8v72h-5.8v2.6h31.8v-2.6l-.1-.1h.1l-.3-1.3-10.8 1.4h-3.3v-37.3l.2-34.6z"/></svg>